<svg id="Layer_1" xmlns="http://www.w3.org/2000/svg" viewBox="0 0 645.6 220.2"><style>.st0{fill:#FFFFFF;stroke:#FFFFFF;stroke-miterlimit:10;}</style><path class="st0" d="M16.9 126c.2 1.7.6 3 1.3 4 .6 1 1.5 1.6 2.7 1.9 1.1.3 2.6.4 4.5.4v2.2H0v-2.2c1.8 0 3.3-.1 4.5-.4 1.1-.3 2-.9 2.7-1.9.6-1 1.1-2.3 1.3-4 .2-1.7.3-3.9.3-6.6v-17.7c0-2.8-.1-5-.3-6.7-.2-1.7-.6-2.9-1.3-3.9-.6-.9-1.5-1.5-2.7-1.8-1.2-.3-2.7-.5-4.5-.5v-2.2h22.9c5.8 0 10.1 1.3 13.2 3.9 3 2.6 4.5 5.9 4.5 9.8 0 3.8-1.5 7.1-4.5 9.7-3 2.6-7.4 3.9-13.2 3.9h-6.3v5.4c0 2.8.1 5 .3 6.7zM32 100.3c0-2.7-.7-4.9-2.2-6.9-1.5-1.9-3.8-2.9-6.9-2.9h-6.3v19.3h6.3c3.1 0 5.4-.9 6.9-2.8 1.4-1.9 2.2-4.1 2.2-6.7zM88.9 110.5v-4.7c0-2.5-.1-4.4-.3-5.9-.2-1.5-.6-2.6-1.1-3.4-.5-.8-1.3-1.3-2.3-1.6-1-.3-2.3-.4-3.9-.4v-1.9h22.2v1.9c-1.6 0-2.9.1-3.9.4-1 .3-1.8.8-2.3 1.6-.5.8-.9 1.9-1.1 3.4-.2 1.5-.3 3.4-.3 5.9v15.5c0 2.4.1 4.3.3 5.8.2 1.5.6 2.6 1.1 3.5.5.8 1.3 1.4 2.3 1.6 1 .3 2.3.4 3.9.4v1.9H81.2v-1.9c1.6 0 2.9-.1 3.9-.4 1-.3 1.8-.8 2.3-1.6.5-.8.9-2 1.1-3.5.2-1.5.3-3.4.3-5.8v-7.2h-22v7.2c0 2.4.1 4.3.3 5.8.2 1.5.6 2.6 1.1 3.5.5.8 1.3 1.4 2.3 1.6 1 .3 2.3.4 3.9.4v1.9h-22v-1.9c1.6 0 2.9-.1 3.9-.4 1-.3 1.8-.8 2.3-1.6.5-.8.9-2 1.1-3.5.2-1.5.3-3.4.3-5.8v-15.5c0-2.5-.1-4.4-.3-5.9-.2-1.5-.6-2.6-1.1-3.4-.5-.8-1.3-1.3-2.3-1.6-1-.3-2.3-.4-3.9-.4v-1.9h22.2v1.9c-1.6 0-2.9.1-3.9.4-1 .3-1.8.8-2.3 1.6-.5.8-.9 1.9-1.1 3.4-.2 1.5-.3 3.4-.3 5.9v4.7h21.9zM116.9 134.5v-1.9c1.6 0 2.9-.1 3.9-.4 1-.3 1.8-.8 2.3-1.6.5-.8.9-2 1.1-3.5.2-1.5.3-3.4.3-5.8v-15.5c0-2.5-.1-4.4-.3-5.9-.2-1.5-.6-2.6-1.1-3.4-.5-.8-1.3-1.3-2.3-1.6-1-.3-2.3-.4-3.9-.4v-1.9h22.2v1.9c-1.6 0-2.9.1-3.9.4-1 .3-1.8.8-2.3 1.6-.5.8-.9 1.9-1.1 3.4-.2 1.5-.3 3.4-.3 5.9v15.5c0 2.4.1 4.3.3 5.8.2 1.5.6 2.6 1.1 3.5.5.8 1.3 1.4 2.3 1.6 1 .3 2.3.4 3.9.4v1.9h-22.2zM174.5 132.3c1.8 0 3.3-.1 4.5-.4 1.1-.3 2-.9 2.7-1.9.6-1 1.1-2.3 1.3-4 .2-1.7.3-3.9.3-6.6v-17.7c0-2.8-.1-5-.3-6.7-.2-1.7-.6-2.9-1.3-3.9-.6-.9-1.5-1.5-2.7-1.8-1.1-.3-2.6-.4-4.5-.4v-2.2h23.4c5.2 0 9.2 1.2 11.9 3.5 2.7 2.3 4 5.2 4 8.7 0 1.9-.4 3.7-1.3 5.3-.8 1.6-2 3-3.5 4.2 2.8 1.3 4.9 3 6.4 5.1 1.5 2.2 2.2 4.7 2.2 7.5 0 3.9-1.5 7.2-4.5 9.7-3 2.6-7.4 3.9-13.1 3.9h-25.6v-2.3zM205.6 99c0-2.2-.6-4.2-1.9-5.9-1.3-1.7-3.2-2.5-5.8-2.5h-6.7v16.5h6.7c2.6 0 4.5-.8 5.8-2.4 1.2-1.7 1.9-3.6 1.9-5.7zm4 21.9c0-2.6-.8-4.8-2.3-6.8s-3.9-2.9-7-2.9h-9.2V122c0 1.8.1 3.2.2 4.3.1 1.1.5 2 .9 2.6.5.6 1.2 1 2 1.2.9.2 2.1.3 3.5.3h2.4c3.2 0 5.5-.9 7-2.8 1.7-1.9 2.5-4.1 2.5-6.7zM260.1 130.6c1.4-.2 2.4-.6 3.2-1.1.8-.5 1.4-1.1 1.7-1.9.4-.8.7-1.7 1-2.9l.5-1.9h1.9l-.8 11.7h-36.2v-1.9c1.6 0 2.9-.1 3.9-.4 1-.3 1.8-.8 2.3-1.6.5-.8.9-2 1.1-3.5.2-1.5.3-3.4.3-5.8v-15.5c0-2.5-.1-4.4-.3-5.9-.2-1.5-.6-2.6-1.1-3.4-.5-.8-1.3-1.3-2.3-1.6-1-.3-2.3-.4-3.9-.4v-1.9h33.9l.8 11.6h-2l-.5-1.9c-.3-1.1-.6-2-.9-2.9-.4-.8-.9-1.5-1.7-1.9-.8-.5-1.8-.8-3.2-1.1s-3.1-.3-5.3-.3H246v14.4h.6c2.5 0 4.4-.1 5.8-.3 1.4-.2 2.4-.6 3.1-1.1.7-.5 1.1-1.3 1.3-2.3.2-1 .3-2.3.3-3.9h1.9v18.9h-2c0-1.6-.1-2.9-.3-3.9-.2-1-.6-1.8-1.3-2.3-.7-.5-1.7-.9-3.1-1.1-1.4-.2-3.3-.3-5.8-.3h-.5v5.6c0 2.4.1 4.3.3 5.8.2 1.5.6 2.6 1.1 3.4.5.8 1.3 1.3 2.3 1.6 1 .3 2.3.4 3.9.4h1.2c2.2-.1 4-.2 5.3-.4zM292 96.4c-2.2 0-4 .1-5.3.3-1.3.2-2.3.6-3.1 1.1-.7.5-1.2 1.1-1.5 1.9-.3.8-.6 1.7-1 2.9l-.5 1.9h-1.9l.7-11.9h43.1l.7 11.9h-1.9l-.5-1.9c-.3-1.2-.6-2.1-.9-2.9-.4-.8-.9-1.4-1.6-1.9-.7-.5-1.7-.8-3-1.1-1.3-.2-3.1-.3-5.3-.3h-5.5v24.9c0 2.4.1 4.3.3 5.8.2 1.5.6 2.6 1.2 3.5.6.8 1.4 1.4 2.4 1.6 1 .3 2.3.4 3.9.4v1.9h-22.4v-1.9c1.6 0 2.9-.1 3.9-.4 1-.3 1.8-.8 2.4-1.6.6-.8 1-2 1.2-3.5.2-1.5.3-3.4.3-5.8V96.4H292zM338.7 125.1c-.6 1.4-1 2.6-1.3 3.5-.3.9-.2 1.7.1 2.3.3.6 1 1 2 1.2 1 .2 2.5.3 4.4.3v2h-18.3v-2c1.5 0 2.7-.1 3.6-.3.9-.2 1.7-.6 2.4-1.2s1.3-1.5 1.9-2.6c.6-1.1 1.3-2.5 2-4.4l14.2-33.1h1.4l14.2 33.1c.8 1.8 1.5 3.3 2.1 4.4.6 1.1 1.3 2 1.9 2.6.7.6 1.4 1 2.3 1.2.8.2 1.9.3 3.2.3v2h-21.7v-2c3.5 0 5.5-.5 6.1-1.5.6-1 .3-3-.9-5.8l-1.9-4.5h-15.9l-1.8 4.5zm9.8-22.8l-6.4 14.8h12.8l-6.4-14.8zM414.8 113.7v5.6c0 2.7.1 4.9.3 6.6.2 1.7.6 3 1.3 4 .6 1 1.5 1.6 2.7 1.9 1.1.3 2.6.4 4.5.4v2.2h-25.3v-2.2c1.8 0 3.3-.1 4.5-.4 1.1-.3 2-.9 2.7-1.9.6-1 1-2.3 1.3-4 .2-1.7.3-3.9.3-6.6v-17.7c0-2.8-.1-5-.3-6.7-.2-1.7-.6-2.9-1.3-3.9-.6-.9-1.5-1.5-2.7-1.8-1.1-.3-2.6-.4-4.5-.4v-2.2h25.3v2.2c-1.8 0-3.3.1-4.5.4-1.1.3-2 .9-2.7 1.8-.6.9-1.1 2.2-1.3 3.9-.2 1.7-.3 3.9-.3 6.7v7.1l13.5-11.5c2-1.7 3.5-3.1 4.4-4.2 1-1.1 1.5-2 1.5-2.6 0-.6-.3-1.1-1.1-1.3-.8-.2-1.9-.3-3.5-.3v-2.2h20.8v2.2c-1.4 0-2.7.1-3.9.4-1.2.3-2.4.8-3.8 1.5-1.3.7-2.8 1.7-4.5 2.9-1.7 1.3-3.6 2.9-5.9 4.9l-10.3 8.7 16.1 15.5c2.3 2 4.2 3.6 5.8 4.9 1.6 1.3 3 2.2 4.1 2.9 1.2.7 2.2 1.2 3.2 1.4.9.3 1.9.4 2.8.4v2.1h-25.3v-2.3c3 .1 4.7-.5 5-1.7.3-1.2-1.3-3.4-4.8-6.7l-11.4-12.5-2.7 2.5zM469.7 125.1c-.6 1.4-1 2.6-1.3 3.5-.3.9-.2 1.7.1 2.3.3.6 1 1 2 1.2 1 .2 2.5.3 4.4.3v2h-16.3v-2c1.5 0 3.4-.9 4.1-1.5.7-.6 1.3-1.5 1.9-2.6.6-1.1 1.3-2.5 2-4.4l14.2-33.1h1.4l14.2 33.1c.8 1.8 1.5 3.3 2.1 4.4.6 1.1 1.3 2 1.9 2.6.7.6 1.4 1 2.3 1.2.8.2 1.9.3 3.2.3v2h-21.7v-2c3.5 0 5.5-.5 6.1-1.5.6-1 .3-3-.9-5.8l-1.9-4.5h-15.9l-1.9 4.5zm9.8-22.8l-6.4 14.8h12.8l-6.4-14.8zM527.7 127c.2 1.5.6 2.6 1.1 3.5.5.8 1.3 1.4 2.3 1.6 1 .3 2.3.4 3.9.4v1.9h-22.2v-1.9c1.6 0 2.9-.1 3.9-.4 1-.3 1.8-.8 2.3-1.6.5-.8.9-2 1.1-3.5.2-1.5.3-3.4.3-5.8v-15.5c0-2.5-.1-4.4-.3-5.9-.2-1.5-.6-2.6-1.1-3.4-.5-.8-1.3-1.3-2.3-1.6-1-.3-2.3-.4-3.9-.4v-1.9h20c5 0 8.9 1.1 11.5 3.4 2.6 2.3 4 5.1 4 8.6 0 3.4-1.3 6.2-4 8.5-2.6 2.3-6.5 3.4-11.5 3.4h-5.5v4.7c.1 2.5.2 4.5.4 5.9zm13.2-22.4c0-2.3-.6-4.3-1.9-6-1.3-1.7-3.3-2.5-6-2.5h-5.5v16.8h5.5c2.7 0 4.7-.8 6-2.5 1.3-1.6 1.9-3.6 1.9-5.8zM573.9 127c.2 1.5.6 2.6 1.1 3.5.6.8 1.3 1.4 2.3 1.6 1 .3 2.3.4 3.9.4v1.9H559v-1.9c1.6 0 2.9-.1 3.9-.4 1-.3 1.8-.8 2.3-1.6.5-.8.9-2 1.1-3.5.2-1.5.3-3.4.3-5.8v-15.5c0-2.5-.1-4.4-.3-5.9-.2-1.5-.6-2.6-1.1-3.4-.5-.8-1.3-1.3-2.3-1.6-1-.3-2.3-.4-3.9-.4v-1.9h20c5 0 8.9 1.1 11.5 3.4 2.6 2.3 4 5.1 4 8.6 0 3.4-1.3 6.2-4 8.5-2.6 2.3-6.5 3.4-11.5 3.4h-5.5v4.7c.1 2.5.2 4.5.4 5.9zm13.2-22.4c0-2.3-.6-4.3-1.9-6-1.3-1.7-3.3-2.5-6-2.5h-5.5v16.8h5.5c2.7 0 4.7-.8 6-2.5 1.2-1.6 1.9-3.6 1.9-5.8zM609.4 125.1c-.6 1.4-1 2.6-1.3 3.5-.3.9-.2 1.7.1 2.3.3.6 1 1 2 1.2 1 .2 2.5.3 4.4.3v2h-18.3v-2c1.5 0 2.7-.1 3.6-.3.9-.2 1.7-.6 2.4-1.2s1.3-1.5 1.9-2.6c.6-1.1 1.3-2.5 2-4.4l14.2-33.1h1.4l14.2 33.1c.8 1.8 1.5 3.3 2.1 4.4.6 1.1 1.3 2 1.9 2.6.7.6 1.4 1 2.3 1.2.8.2 1.9.3 3.2.3v2h-21.7v-2c3.5 0 5.5-.5 6.1-1.5.6-1 .3-3-.9-5.8l-1.9-4.5h-15.9l-1.8 4.5zm9.9-22.8l-6.4 14.8h12.8l-6.4-14.8z"/><g><path class="st0" d="M310 7.2c-2-.5-6.8-.6-7.9-.6-5.8 0-9 3.1-9 6.9 0 1 .1 1.6.5 2.3.3.4.5.4.7.2.5-.6 1.3-.7 1.7-.7 1 0 2.2 1 2.2 2.5 0 1-.9 2.2-2.6 2.2-1.5 0-4.2-1.1-4.2-6 0-2 .9-5.5 4.5-7.8 2.3-1.5 5.6-2.3 10.6-2.3 2.9 0 6.7.4 10 .9 3.3.4 8.7.9 9.8.9 1.4 0 2.8-.2 2.8-1.5 0-.3-.2-.8-.5-1.2-.3-.3-.5-.9-.5-1.3 0-.7.5-1.6 1.8-1.6s1.7 1.3 1.7 2.6c0 1.6-.3 2.2-1 4l-8 18.7.3.2c2.5-3.6 5.9-7.9 10.1-7.9 2.3 0 3.5 1.9 3.5 4.3 0 4.1-1.7 8.5-3.5 11.8-2 3.8-4.8 6.7-7.6 6.7-1.5 0-2.6-1.1-2.6-2.2 0-1.2.8-2.5 1.8-2.5s1.7.8 1.8 1.5c.1.5.3 1 .9 1 1.1 0 2.8-3.3 3.8-5.9 1.1-2.9 2-6.8 2-9.2 0-1.3-.1-2.8-1.5-2.8-2.7 0-7.2 5.3-8.5 7-1.2 1.5-2.3 3.5-3.4 5.9l-2.1 5.2c-.1.3-.4.4-.7.4h-2.2c-.3 0-.4-.2-.4-.3l11.6-28.8c.3-.7.5-1.2.7-1.7-.8.3-1.8.4-2.8.4-1.7 0-8.2-.5-9.9-.8l-7.9 25c-1 3.2-.7 4.4 2.2 4.4h2c.4 0 .4.3.4.5l-.2 1c-.1.3-.2.4-.7.4-.7 0-2.7-.2-7.6-.2-3.7 0-6.3.2-6.9.2-.4 0-.5-.2-.4-.5l.2-1c.1-.3.2-.4.6-.4h1.4c3 0 4-1.4 5.2-5.1L310 7.2zM338.7 34.2c0-4.3 2.8-9.6 6.5-13.3 1.6-1.6 4.4-3.4 6.8-3.4 2 0 2.9 1.5 2.9 2.7 0 2.5-1.9 5.1-4.7 6.6-2.7 1.4-5.5 1.9-7.4 2.1-.3.6-.7 2.3-.7 4.7 0 2.3 1.7 3.2 2.6 3.2 2.5 0 4.7-1.9 5.8-3.6.1-.2.3-.3.5 0l.6.5c.3.2.3.3.1.5-1.3 1.8-4.3 5.1-8.2 5.1-3.4-.1-4.8-1.7-4.8-5.1zm4.5-6.7c1.8.2 8.4-2 8.4-5.7 0-1-.5-1.9-1.6-1.9-3.3-.1-6.4 5.7-6.8 7.6z"/></g><path class="st0" d="M290.7 48h60.9v1.7h-60.9z"/><g><path class="st0" d="M254.6 209c0-4.9 3.4-8.5 7.5-8.5 2.9 0 5.1 2.1 5.1 4 0 1.2-.8 2.5-2.2 2.5-1 0-2.1-.9-2.4-2.1-.3-1.3-1-2.4-2.1-2.4-1.3.1-3.2 2.3-3.2 5.5 0 4.5 4.3 8.9 10.2 8.9 7.9 0 13.3-5.6 13.3-12 0-7.1-2.9-11.2-4.8-15.6-1.5-3.6-2.6-6.6-2.6-9.2 0-5.4 4.3-9.8 9.8-9.8 5.8 0 6.7 3.8 6.6 5.2 0 1-1 2.4-2.6 2.4-1 0-1.8-1-1.8-1.8s.3-1.4.6-2c.6-1.2-.6-2.3-2.9-2.3-3.1 0-5.8 2.7-5.7 6.9.1 2.8 1.3 5.6 3 9.2 2.1 4.4 4.7 8.6 4.7 14.1 0 9.4-7.5 16.7-17.8 16.7-8.6 0-12.7-5.1-12.7-9.7zM289.7 199.1c0-6.4 4.8-15.1 11.6-15.1 3.4 0 5.4 2.5 5.4 5.9 0 5.6-4.4 15.7-11.8 15.7-2.7.1-5.2-2.6-5.2-6.5zm15-9.9c0-1.6-.9-2.8-2.5-2.8-2.1 0-4.8 1.9-7.4 6-1.7 2.7-2.9 5.8-2.9 8.2 0 1.6 1.1 2.6 2.3 2.6 5.3 0 10.5-10.6 10.5-14zM308.8 201c0-6.9 5.6-17 11.5-17 2.4 0 2.9 1.9 2.9 2.8 0 1.2-1.2 2.1-2.1 2.1-.7 0-1.1-.4-1.3-1.1-.2-.6-.8-1.3-1.6-1.3-1.3 0-2.6 1.2-3.7 3.5-1.4 2.9-2.2 7.3-2.2 8.9 0 3.7 1.1 4.2 2 4.2 2 0 3.9-2 4.5-2.7.2-.2.3-.3.5-.2l.6.5c.2.1.3.3.1.6-.7 1.1-4.1 4.4-7.3 4.4-1.9 0-3.9-1.3-3.9-4.7zM324.8 204.4c0-1.2.9-3.5 3-9.2l1.5-4c.5-1.4.9-2.4.9-3 0-.5-.3-.7-.7-.7-.9 0-3.2 2.7-4.1 3.6-.2.2-.4.2-.6 0l-.4-.5c-.2-.2-.3-.3-.2-.5.2-.3 5.4-6.4 8.6-6.2.6 0 1.2.4 1.2 1.3s-.8 3.2-1.7 5.6l-2.9 7.7c-.7 1.9-.9 3-.9 3.4 0 .5.2.8.6.9 1.1-.2 3.8-3.1 4.1-3.6.1-.2.3-.2.6.1l.4.4c.2.3.3.4.1.6-.3.4-4.4 5.3-8.6 5.3-.6 0-.9-.4-.9-1.2zm6.4-29.6c0-1.4 1.1-2.5 2.6-2.5 1.8 0 2.7 1.3 2.7 2.4 0 .8-.6 2.5-2.7 2.5-2.2 0-2.6-1.8-2.6-2.4zM336.8 200.7c0-4.3 2.8-9.6 6.5-13.3 1.6-1.6 4.4-3.4 6.8-3.4 2 0 2.9 1.5 2.9 2.7 0 2.5-1.9 5.1-4.7 6.6-2.7 1.4-5.5 1.9-7.4 2.1-.3.6-.7 2.3-.7 4.7 0 2.3 1.7 3.2 2.6 3.2 2.5 0 4.7-1.9 5.8-3.6.1-.2.3-.3.5 0l.6.5c.3.2.3.3.1.5-1.3 1.8-4.3 5.1-8.2 5.1-3.4-.1-4.8-1.8-4.8-5.1zm4.5-6.8c1.8.2 8.4-2 8.4-5.7 0-1-.5-1.9-1.6-1.9-3.2 0-6.4 5.8-6.8 7.6zM360.3 187.3h-3.6c-.3 0-.4-.1-.3-.4l.4-1.1c.1-.3.3-.4.6-.4h3.7l2.6-5.9c.3-.5.4-.6.8-.8.6-.2 1.9-.7 2.3-.9.3-.2.6-.3.8-.3.3 0 .4.3 0 1l-3.4 6.8h5.2c.3 0 .4.2.2.6l-.5 1.1c-.1.2-.3.3-.5.3h-5.2l-4.9 11.4c-.6 1.4-1.2 2.7-1.2 3.2 0 .6.2.9.7.9 1.5 0 4.8-2.9 5.1-3.2.2-.2.3-.2.5 0l.6.6c.2.2.2.3.1.5-.7.8-5.4 5-9.3 5-1.3 0-1.6-.5-1.6-1.2 0-.8.3-1.6.6-2.4l6.3-14.8zM369.4 191.3c-.1 0-.2-.2-.1-.5.3-.6 3-6.9 6.1-6.9 1.6 0 2.1 1.3 2.5 5.7.5 5.8.9 11.7 1 15l.2-.1c1.4-2.3 4.5-8.3 5.2-10.8.3-.9.8-2.2.8-4.4 0-.6-.1-1.5-.3-1.9-.2-.5-.6-1.2-.6-1.8 0-.8.5-1.8 2.1-1.8 1.4 0 2 1.3 2 2.5 0 3.3-1.9 7.6-3.4 10.8-2.2 4.9-7.6 14-12 18.3-1.4 1.4-4.7 4.6-7.7 4.6-2 0-2.8-1.2-2.8-2.4 0-1.3 1.1-2 2-2.1.9 0 1.3.4 1.9.8.4.3.9.6 1.3.6.5 0 1.4-.3 2.4-1.1 2.8-2.1 4.8-5 5.6-6.9.4-1 .5-2.1.4-2.8-.1-1.2-1.1-15-1.6-17.6-.2-1-.5-1.4-.9-1.4-.9 0-2.5 3-2.9 4.1-.1.2-.3.2-.5.2l-.7-.1z"/></g><path class="st0" d="M294.7 215h60.9v1.7h-60.9z"/></svg>